
<svg xmlns="http://www.w3.org/2000/svg" version="1.1" xmlns:xlink="http://www.w3.org/1999/xlink" preserveAspectRatio="none" x="0px" y="0px" width="3080px" height="3080px" viewBox="0 0 3080 3080">
<defs>
<linearGradient id="Gradient_1" gradientUnits="userSpaceOnUse" x1="-1.5499999999999545" y1="1538.4" x2="3078.3500000000004" y2="1538.4" spreadMethod="pad">
<stop  offset="0%" stop-color="#9D50FF"/>

<stop  offset="100%" stop-color="#FF498B"/>
</linearGradient>

<g id="___0_Layer0_0_FILL">
<path fill="url(#Gradient_1)" stroke="none" d="
M 3078.55 478.9
Q 3065.15 289.95 2927.6 152.4 2775.2 0 2559.65 0
L 520.35 0
Q 304.8 0 152.4 152.4 0 304.8 0 520.35
L 0 2559.65
Q 0 2775.2 152.4 2927.6 289.95 3065.15 478.9 3078.55
L 2601.1 3078.55
Q 2790.05 3065.15 2927.6 2927.6 3065.15 2790.05 3078.55 2601.1
L 3078.55 478.9
M 2666.5 1704.05
L 2597.55 1704.05 2597.85 1135.25 1703.2 1135.4 1701.9 1704.05 1632.4 1704.05 1632.8 1065.35 2666.35 1066.75 2666.5 1704.05
M 2597.55 2308.4
L 2666.5 2308.4 2666.65 2705.95 1631.95 2705.65 1632.25 2514.8 691.1 2514.8 691.1 1509.75 640.75 1598.55 578.15 1563 691.1 1363.95 691.1 1363.55 202.8 1363.25 203.65 315.05 1249.85 316.65 1250.15 1363.7 763.1 1363.55 763.1 1363.95 876.2 1563 813.6 1598.55 763.1 1509.75 763.1 2442.85 1632.25 2442.85 1632.4 2308.4 1701.9 2308.4 1700.9 2636.55 2597.1 2636.25 2597.55 2308.4
M 2743.8 1931.05
L 2929.3 1931.05 2929.3 1988.6 2743.8 1988.6 2743.8 1931.05
M 1793.75 1228.7
L 2504 1229.25 2504 1704.05 1794 1704.05 1793.75 1228.7
M 1010.8 1559.15
L 1074.1 1559.15 1074.1 1690.95 1205.8 1690.95 1205.8 1754 1074.1 1754 1074.1 1886 1010.8 1886 1010.8 1754 879.25 1754 879.25 1690.95 1010.8 1690.95 1010.8 1559.15
M 2400.1 1931.05
L 2585.6 1931.05 2585.6 1988.6 2400.1 1988.6 2400.1 1931.05
M 2057.85 1931.05
L 2243.35 1931.05 2243.35 1988.6 2057.85 1988.6 2057.85 1931.05
M 1713 1931.05
L 1898.5 1931.05 1898.5 1988.6 1713 1988.6 1713 1931.05
M 1369.6 1931.05
L 1555.1 1931.05 1555.1 1988.6 1369.6 1988.6 1369.6 1931.05
M 2504 2543.15
L 1794 2543.6 1794 2308.4 2504 2308.4 2504 2543.15
M 1180.45 385.85
L 274.75 386 272.6 1293.45 1179.75 1293 1180.45 385.85
M 1085.35 481
L 1085.35 1198.9 366.7 1199.3 366.55 480.4 1085.35 481 Z"/>

<path fill="#FFD6E7" stroke="none" d="
M 1794 2543.6
L 2504 2543.15 2504 2308.4 1794 2308.4 1794 2543.6
M 1555.1 1931.05
L 1369.6 1931.05 1369.6 1988.6 1555.1 1988.6 1555.1 1931.05
M 1898.5 1931.05
L 1713 1931.05 1713 1988.6 1898.5 1988.6 1898.5 1931.05
M 2243.35 1931.05
L 2057.85 1931.05 2057.85 1988.6 2243.35 1988.6 2243.35 1931.05
M 2585.6 1931.05
L 2400.1 1931.05 2400.1 1988.6 2585.6 1988.6 2585.6 1931.05
M 1074.1 1559.15
L 1010.8 1559.15 1010.8 1690.95 879.25 1690.95 879.25 1754 1010.8 1754 1010.8 1886 1074.1 1886 1074.1 1754 1205.8 1754 1205.8 1690.95 1074.1 1690.95 1074.1 1559.15
M 2504 1229.25
L 1793.75 1228.7 1794 1704.05 2504 1704.05 2504 1229.25
M 2929.3 1931.05
L 2743.8 1931.05 2743.8 1988.6 2929.3 1988.6 2929.3 1931.05
M 2666.5 2308.4
L 2597.55 2308.4 2597.1 2636.25 1700.9 2636.55 1701.9 2308.4 1632.4 2308.4 1632.25 2442.85 763.1 2442.85 763.1 1509.75 813.6 1598.55 876.2 1563 763.1 1363.95 763.1 1363.55 1250.15 1363.7 1249.85 316.65 203.65 315.05 202.8 1363.25 691.1 1363.55 691.1 1363.95 578.15 1563 640.75 1598.55 691.1 1509.75 691.1 2514.8 1632.25 2514.8 1631.95 2705.65 2666.65 2705.95 2666.5 2308.4
M 274.75 386
L 1180.45 385.85 1179.75 1293 272.6 1293.45 274.75 386
M 1085.35 1198.9
L 1085.35 481 366.55 480.4 366.7 1199.3 1085.35 1198.9
M 2597.55 1704.05
L 2666.5 1704.05 2666.35 1066.75 1632.8 1065.35 1632.4 1704.05 1701.9 1704.05 1703.2 1135.4 2597.85 1135.25 2597.55 1704.05 Z"/>
</g>

<path id="___0_Layer0_0_1_STROKES" stroke="#000000" stroke-width="1" stroke-linejoin="round" stroke-linecap="round" fill="none" d="
M 3078.55 478.9
Q 3080 499.35 3080 520.35
L 3080 2559.65
Q 3080 2580.65 3078.55 2601.1
M 2601.1 3078.55
Q 2580.65 3080 2559.65 3080
L 520.35 3080
Q 499.35 3080 478.9 3078.55"/>
</defs>

<g transform="matrix( 1, 0, 0, 1, 1.45,1.45) ">
<g transform="matrix( 1, 0, 0, 1, 0,0) ">
<use xlink:href="#___0_Layer0_0_FILL"/>

<use xlink:href="#___0_Layer0_0_1_STROKES"/>
</g>
</g>
</svg>
