
<svg xmlns="http://www.w3.org/2000/svg" version="1.1" xmlns:xlink="http://www.w3.org/1999/xlink" preserveAspectRatio="none" x="0px" y="0px" width="3080px" height="3080px" viewBox="0 0 3080 3080">
<defs>
<linearGradient id="Gradient_1" gradientUnits="userSpaceOnUse" x1="-0.03750000000002274" y1="534.95" x2="1069.9375" y2="534.95" spreadMethod="pad">
<stop  offset="0%" stop-color="#9D50FF"/>

<stop  offset="100%" stop-color="#FF498B"/>
</linearGradient>

<g id="___9_0_Layer0_0_FILL">
<path fill="url(#Gradient_1)" stroke="none" d="
M 0 0
L 0 1070 1070 1070 1070 0 0 0
M 927.1 592.5
L 903.1 592.5 903.25 394.95 592.4 395 591.95 592.5 567.8 592.5 568 370.65 927.05 371.15 927.1 592.5
M 870.6 427.55
L 870.6 592.5 623.95 592.5 623.9 427.4 870.6 427.55
M 725.5 681.45
L 770 681.45 725.5 681.45
M 844.35 681.45
L 888.85 681.45 844.35 681.45
M 963.85 681.45
L 1008.35 681.45 963.85 681.45
M 253.1 477.65
L 212.2 549.65 253.1 477.65 294 549.65 253.1 477.65
M 135.35 760.5
L 157.35 760.5 157.35 806.3 203.05 806.3 203.05 828.2 157.35 828.2 157.35 874.05 135.35 874.05 135.35 828.2 89.6 828.2 89.6 806.3 135.35 806.3 135.35 760.5
M 486.45 681.45
L 530.95 681.45 486.45 681.45
M 71.3 110
L 434.75 110.5 434.85 474.3 71 474.2 71.3 110
M 567.8 802.45
L 591.95 802.45 591.65 916.5 903 916.4 903.1 802.45 927.1 802.45 927.15 940.6 567.65 940.5 567.75 861.65 253.1 861.65 253.1 480.85 253.1 861.65 567.75 861.65 567.8 802.45
M 623.95 884.2
L 623.95 802.45 870.6 802.45 870.6 884.05 623.95 884.2
M 605.75 681.45
L 650.25 681.45 605.75 681.45
M 410.4 449.8
L 410.65 134.55 96.05 134.6 95.25 449.95 410.4 449.8
M 127.9 167.4
L 377.65 167.6 377.65 417.1 128 417.2 127.9 167.4 Z"/>

<path fill="#FFD6E7" stroke="none" d="
M 623.95 802.45
L 623.95 884.2 870.6 884.05 870.6 802.45 623.95 802.45
M 591.95 802.45
L 567.8 802.45 567.75 861.65 567.65 940.5 927.15 940.6 927.1 802.45 903.1 802.45 903 916.4 591.65 916.5 591.95 802.45
M 434.75 110.5
L 71.3 110 71 474.2 434.85 474.3 434.75 110.5
M 410.65 134.55
L 410.4 449.8 95.25 449.95 96.05 134.6 410.65 134.55
M 377.65 167.6
L 127.9 167.4 128 417.2 377.65 417.1 377.65 167.6
M 157.35 760.5
L 135.35 760.5 135.35 806.3 89.6 806.3 89.6 828.2 135.35 828.2 135.35 874.05 157.35 874.05 157.35 828.2 203.05 828.2 203.05 806.3 157.35 806.3 157.35 760.5
M 870.6 592.5
L 870.6 427.55 623.9 427.4 623.95 592.5 870.6 592.5
M 903.1 592.5
L 927.1 592.5 927.05 371.15 568 370.65 567.8 592.5 591.95 592.5 592.4 395 903.25 394.95 903.1 592.5 Z"/>
</g>

<path id="___9_0_Layer0_0_1_STROKES" stroke="#FFD6E7" stroke-width="20" stroke-linejoin="round" stroke-linecap="square" fill="none" d="
M 725.5 681.45
L 770 681.45
M 844.35 681.45
L 888.85 681.45
M 963.85 681.45
L 1008.35 681.45
M 486.45 681.45
L 530.95 681.45
M 605.75 681.45
L 650.25 681.45"/>

<path id="___9_0_Layer0_0_2_STROKES" stroke="#FFD6E7" stroke-width="25" stroke-linejoin="round" stroke-linecap="butt" fill="none" d="
M 294 549.65
L 253.1 477.65 212.2 549.65"/>

<path id="___9_0_Layer0_0_3_STROKES" stroke="#FFD6E7" stroke-width="25" stroke-linejoin="miter" stroke-linecap="square" stroke-miterlimit="3" fill="none" d="
M 567.75 861.65
L 253.1 861.65 253.1 480.85"/>
</defs>

<g transform="matrix( 2.878509521484375, 0, 0, 2.878509521484375, 0,0) ">
<g transform="matrix( 1, 0, 0, 1, 0,0) ">
<use xlink:href="#___9_0_Layer0_0_FILL"/>

<use xlink:href="#___9_0_Layer0_0_1_STROKES"/>

<use xlink:href="#___9_0_Layer0_0_2_STROKES"/>

<use xlink:href="#___9_0_Layer0_0_3_STROKES"/>
</g>
</g>
</svg>
